<svg width="96" height="96" viewBox="0 0 96 96" fill="none" xmlns="http://www.w3.org/2000/svg">
<path d="M48 8C25.92 8 8 25.92 8 48C8 70.08 25.92 88 48 88C70.08 88 88 70.08 88 48C88 25.92 70.08 8 48 8ZM52 21.2L57.4 17.4C64.68 19.64 70.88 24.44 74.92 30.76L73.36 36.12L67.96 37.96L52 26.8V21.2ZM38.6 17.4L44 21.2V26.8L28.04 37.96L22.64 36.12L21.08 30.76C25.12 24.48 31.32 19.68 38.6 17.4ZM28.32 68.44L23.76 68.84C18.92 63.24 16 55.96 16 48C16 47.52 16.04 47.08 16.08 46.6L20.08 43.68L25.6 45.6L31.44 62.96L28.32 68.44ZM58 78.36C54.84 79.4 51.48 80 48 80C44.52 80 41.16 79.4 38 78.36L35.24 72.4L37.8 68H58.24L60.8 72.44L58 78.36ZM57.08 60H38.92L33.52 43.92L48 33.76L62.52 43.92L57.08 60ZM72.24 68.84L67.68 68.44L64.52 62.96L70.36 45.6L75.92 43.72L79.92 46.64C79.96 47.08 80 47.52 80 48C80 55.96 77.08 63.24 72.24 68.84Z" fill="white"/>
<g clip-path="url(#clip0_1_7)">
<path d="M84 61.0133L70.6667 61C69.2 61 68 62.2 68 63.6667V87.6667C68 89.1333 69.2 90.3333 70.6667 90.3333H84C85.4667 90.3333 86.6667 89.1333 86.6667 87.6667V63.6667C86.6667 62.2 85.4667 61.0133 84 61.0133ZM84 85H70.6667V66.3333H84V85Z" fill="#3C3C3C"/>
</g>
<defs>
<clipPath id="clip0_1_7">
<rect width="32" height="32" fill="white" transform="translate(61 60)"/>
</clipPath>
</defs>
</svg>
