<svg width="26" height="26" viewBox="0 0 26 26" fill="none" xmlns="http://www.w3.org/2000/svg">
<g clip-path="url(#clip0_10_115)">
<path d="M13 2.16667C7.01999 2.16667 2.16666 7.02 2.16666 13C2.16666 18.98 7.01999 23.8333 13 23.8333C18.98 23.8333 23.8333 18.98 23.8333 13C23.8333 7.02 18.98 2.16667 13 2.16667ZM14.0833 5.74167L15.5458 4.7125C17.5175 5.31917 19.1967 6.61917 20.2908 8.33083L19.8683 9.7825L18.4058 10.2808L14.0833 7.25833V5.74167ZM10.4542 4.7125L11.9167 5.74167V7.25833L7.59416 10.2808L6.13166 9.7825L5.70916 8.33083C6.80332 6.63 8.48249 5.33 10.4542 4.7125ZM7.66999 18.5358L6.43499 18.6442C5.12416 17.1275 4.33332 15.1558 4.33332 13C4.33332 12.87 4.34416 12.7508 4.35499 12.6208L5.43832 11.83L6.93332 12.35L8.51499 17.0517L7.66999 18.5358ZM15.7083 21.2225C14.8525 21.5042 13.9425 21.6667 13 21.6667C12.0575 21.6667 11.1475 21.5042 10.2917 21.2225L9.54416 19.6083L10.2375 18.4167H15.7733L16.4667 19.6192L15.7083 21.2225ZM15.4592 16.25H10.5408L9.07832 11.895L13 9.14333L16.9325 11.895L15.4592 16.25ZM19.565 18.6442L18.33 18.5358L17.4742 17.0517L19.0558 12.35L20.5617 11.8408L21.645 12.6317C21.6558 12.7508 21.6667 12.87 21.6667 13C21.6667 15.1558 20.8758 17.1275 19.565 18.6442Z" fill="#05BE01"/>
</g>
<defs>
<clipPath id="clip0_10_115">
<rect width="26" height="26" fill="white"/>
</clipPath>
</defs>
</svg>
